<?xml version="1.0" encoding="utf-8"?>
<!-- Generator: Adobe Illustrator 22.1.0, SVG Export Plug-In . SVG Version: 6.00 Build 0)  -->
<svg version="1.1" xmlns="http://www.w3.org/2000/svg" xmlns:xlink="http://www.w3.org/1999/xlink" x="0px" y="0px"
	 viewBox="0 0 446.4 144" style="enable-background:new 0 0 446.4 144;" xml:space="preserve">
<style type="text/css">
	.st0{display:none;}
	.st1{display:inline;fill:#003660;}
	.st2{fill:#FFFFFF;}
	.st3{fill:#15385F;}
	.st4{fill:#003764;}
	.st5{fill:#003660;}
</style>
<g id="Layer_2" class="st0">
</g>
<g id="Template">
	<g>
		<g>
			<path class="st3" d="M19.423,81.298H8.501V78.44h3.78V54.118h-3.78v-2.856h9.452l8.695,23.229l8.569-23.229h9.241v2.856h-3.78
				V78.44h3.78v2.857H33.244V78.44h3.779V55.084l-9.955,26.213h-1.135L15.642,55.084V78.44h3.78V81.298z"/>
			<path class="st3" d="M53.863,81.675c-3.991,0-7.143-1.975-7.143-6.469c0-5.125,5.293-6.805,10.838-6.805h3.067v-1.596
				c0-3.697-1.471-4.957-4.621-4.957c-2.94,0-4.536,1.092-4.872,3.947h-3.487c0.42-5.166,4.368-6.846,8.527-6.846
				c4.116,0,7.939,1.512,7.939,7.855v11.762h2.94v2.73h-6.427v-3.025C59.155,80.542,57.014,81.675,53.863,81.675z M60.626,73.61
				v-2.73h-2.94c-4.327,0-7.478,1.135-7.478,4.326c0,1.975,1.009,3.697,3.991,3.697C57.81,78.903,60.626,77.013,60.626,73.61z"/>
			<path class="st3" d="M70.998,75.794V62.268h-3.15v-2.941h3.15v-4.999h3.486v4.999h5.672v2.941h-5.672v13.189
				c0,2.102,0.967,3.193,3.15,3.193c0.883,0,1.85-0.168,2.857-0.504v2.939c-0.967,0.295-1.891,0.504-3.15,0.504
				C72.931,81.591,70.998,79.239,70.998,75.794z"/>
			<path class="st3" d="M82.758,81.298v-2.73h3.066V51.682h-3.15v-2.856h6.637v14.199c1.008-2.059,3.402-4.074,6.889-4.074
				c4.411,0,7.646,2.352,7.646,8.695v10.922h3.066v2.73h-9.704v-2.73h3.15V67.393c0-3.697-1.681-5.42-5.083-5.42
				c-3.108,0-5.965,2.059-5.965,5.924v10.67h3.15v2.73H82.758z"/>
			<path class="st3" d="M108.798,70.544v-0.336c0-6.639,4.243-11.258,10.292-11.258c5.083,0,9.871,3.066,9.871,10.922v1.133H112.41
				c0.168,5,2.562,7.771,7.058,7.771c3.403,0,5.377-1.26,5.839-3.822h3.486c-0.756,4.41-4.41,6.721-9.367,6.721
				C113.209,81.675,108.798,77.307,108.798,70.544z M125.39,68.19c-0.336-4.537-2.688-6.342-6.301-6.342
				c-3.57,0-5.965,2.436-6.553,6.342H125.39z"/>
			<path class="st3" d="M131.435,81.298v-2.73h3.066V62.184h-3.15v-2.857h6.637v3.613c0.883-2.102,3.277-3.99,6.428-3.99
				c2.814,0,5.293,1.176,6.427,4.451c1.471-3.066,4.537-4.451,7.268-4.451c3.948,0,7.267,2.352,7.267,8.736v10.881h3.067v2.73
				h-9.704v-2.73h3.15V67.434c0-3.865-1.512-5.461-4.537-5.461c-2.855,0-5.67,1.934-5.67,5.881v10.713h3.15v2.73h-9.788v-2.73h3.15
				V67.434c0-3.865-1.513-5.461-4.536-5.461c-2.857,0-5.672,1.934-5.672,5.881v10.713h3.15v2.73H131.435z"/>
			<path class="st3" d="M177.721,81.675c-3.99,0-7.142-1.975-7.142-6.469c0-5.125,5.293-6.805,10.838-6.805h3.067v-1.596
				c0-3.697-1.471-4.957-4.621-4.957c-2.941,0-4.537,1.092-4.873,3.947h-3.486c0.42-5.166,4.368-6.846,8.527-6.846
				c4.116,0,7.939,1.512,7.939,7.855v11.762h2.939v2.73h-6.426v-3.025C183.014,80.542,180.871,81.675,177.721,81.675z
				 M184.484,73.61v-2.73h-2.941c-4.326,0-7.477,1.135-7.477,4.326c0,1.975,1.008,3.697,3.99,3.697
				C181.669,78.903,184.484,77.013,184.484,73.61z"/>
			<path class="st3" d="M194.855,75.794V62.268h-3.15v-2.941h3.15v-4.999h3.487v4.999h5.671v2.941h-5.671v13.189
				c0,2.102,0.966,3.193,3.15,3.193c0.882,0,1.849-0.168,2.856-0.504v2.939c-0.966,0.295-1.891,0.504-3.15,0.504
				C196.789,81.591,194.855,79.239,194.855,75.794z"/>
			<path class="st3" d="M206.825,81.298v-2.73h3.066V62.184h-3.15v-2.857h6.638v19.24h3.15v2.73H206.825z M209.052,52.396
				c0-1.344,1.092-2.353,2.394-2.353c1.303,0,2.395,1.009,2.395,2.353c0,1.345-1.092,2.395-2.395,2.395
				C210.143,54.79,209.052,53.741,209.052,52.396z"/>
			<path class="st3" d="M235.724,59.327h3.066v7.436h-2.982c-0.757-2.939-2.773-4.914-6.512-4.914c-3.99,0-7.057,3.191-7.057,8.359
				v0.336c0,5.377,2.939,8.232,7.183,8.232c3.108,0,5.923-1.807,6.302-5.377h3.234c-0.463,4.748-4.285,8.275-9.578,8.275
				c-6.133,0-10.754-4.326-10.754-11.131v-0.336c0-6.723,4.789-11.258,10.67-11.258c3.697,0,5.545,1.469,6.428,3.234V59.327z"/>
			<path class="st3" d="M249.121,81.675c-3.991,0-7.143-1.975-7.143-6.469c0-5.125,5.293-6.805,10.838-6.805h3.067v-1.596
				c0-3.697-1.471-4.957-4.621-4.957c-2.94,0-4.536,1.092-4.872,3.947h-3.487c0.42-5.166,4.368-6.846,8.527-6.846
				c4.116,0,7.939,1.512,7.939,7.855v11.762h2.94v2.73h-6.427v-3.025C254.413,80.542,252.271,81.675,249.121,81.675z M255.884,73.61
				v-2.73h-2.94c-4.327,0-7.478,1.135-7.478,4.326c0,1.975,1.009,3.697,3.991,3.697C253.068,78.903,255.884,77.013,255.884,73.61z"
				/>
			<path class="st3" d="M264.154,81.298v-2.73h3.066V51.682h-3.15v-2.856h6.68v29.742h3.066v2.73H264.154z"/>
			<path class="st3" d="M277.637,83.44c1.807-0.252,2.604-0.967,2.604-2.27c-1.597,0-2.688-0.881-2.688-2.52
				c0-1.43,1.219-2.521,2.604-2.521c1.597,0,2.772,1.135,2.772,3.066v0.799c0,3.697-2.352,5.293-5.293,5.461V83.44z"/>
			<path class="st3" d="M296.242,78.44h3.781V54.118h-3.781v-2.856h11.553v2.856h-4.117v24.197h11.342v-5.252h3.402v8.234h-22.18
				V78.44z"/>
			<path class="st3" d="M320.812,81.298v-2.73h3.066V62.184h-3.15v-2.857h6.637v19.24h3.15v2.73H320.812z M323.039,52.396
				c0-1.344,1.092-2.353,2.394-2.353s2.395,1.009,2.395,2.353c0,1.345-1.093,2.395-2.395,2.395S323.039,53.741,323.039,52.396z"/>
			<path class="st3" d="M332.319,81.298v-2.73h3.066V62.268h-3.15v-2.941h3.15v-3.57c0-4.453,2.185-7.057,6.554-7.057
				c1.134,0,1.722,0.126,2.604,0.42v2.94c-0.629-0.252-1.512-0.462-2.479-0.462c-2.268,0-3.191,1.555-3.191,3.823v3.906h5.377v2.941
				h-5.377v16.299h3.948v2.73H332.319z"/>
			<path class="st3" d="M346.012,70.544v-0.336c0-6.639,4.242-11.258,10.292-11.258c5.083,0,9.872,3.066,9.872,10.922v1.133h-16.551
				c0.168,5,2.562,7.771,7.057,7.771c3.402,0,5.377-1.26,5.839-3.822h3.487c-0.756,4.41-4.411,6.721-9.368,6.721
				C350.422,81.675,346.012,77.307,346.012,70.544z M362.605,68.19c-0.337-4.537-2.689-6.342-6.302-6.342
				c-3.571,0-5.966,2.436-6.554,6.342H362.605z"/>
			<path class="st3" d="M369.363,83.44c1.807-0.252,2.605-0.967,2.605-2.27c-1.597,0-2.689-0.881-2.689-2.52
				c0-1.43,1.219-2.521,2.605-2.521c1.596,0,2.771,1.135,2.771,3.066v0.799c0,3.697-2.352,5.293-5.293,5.461V83.44z"/>
			<path class="st3" d="M15.81,131.675c-3.99,0-7.142-1.975-7.142-6.469c0-5.125,5.293-6.805,10.838-6.805h3.067v-1.596
				c0-3.697-1.471-4.957-4.621-4.957c-2.941,0-4.537,1.092-4.873,3.947H9.594c0.42-5.166,4.368-6.846,8.527-6.846
				c4.116,0,7.939,1.512,7.939,7.855v11.762H29v2.73h-6.426v-3.025C21.103,130.542,18.961,131.675,15.81,131.675z M22.574,123.61
				v-2.73h-2.941c-4.326,0-7.477,1.135-7.477,4.326c0,1.975,1.008,3.697,3.99,3.697C19.759,128.903,22.574,127.013,22.574,123.61z"
				/>
			<path class="st3" d="M30.845,131.298v-2.73h3.066v-16.383h-3.15v-2.857h6.638v3.697c1.008-2.059,3.402-4.074,6.889-4.074
				c4.41,0,7.646,2.352,7.646,8.695v10.922h3.066v2.73h-9.704v-2.73h3.15v-11.174c0-3.697-1.68-5.42-5.082-5.42
				c-3.109,0-5.965,2.059-5.965,5.924v10.67h3.15v2.73H30.845z"/>
			<path class="st3" d="M66.799,131.675c-5.755,0-9.914-4.074-9.914-10.922v-0.336c0-6.721,4.201-11.467,10.25-11.467
				c3.655,0,5.924,1.764,7.184,3.906v-11.174h-3.276v-2.857h6.763v29.742h3.066v2.73h-6.553v-3.781
				C73.058,129.659,69.992,131.675,66.799,131.675z M74.444,120.46v-0.336c0-5.756-2.688-8.402-6.974-8.402
				c-4.368,0-6.973,3.066-6.973,8.527v0.336c0,5.629,2.982,8.318,6.68,8.318C71.252,128.903,74.444,126.173,74.444,120.46z"/>
			<path class="st3" d="M91.912,131.298v-2.857h3.781v-24.322h-3.781v-2.855h12.309c5.755,0,10.502,2.52,10.502,8.779v0.168
				c0,6.344-4.789,8.82-10.502,8.82h-4.873v9.41h4.117v2.857H91.912z M104.473,116.175c4.285,0,6.595-2.1,6.595-5.965v-0.168
				c0-4.328-2.521-5.924-6.595-5.924h-5.125v12.057H104.473z"/>
			<path class="st3" d="M116.566,131.298v-2.73h3.066v-26.885h-3.15v-2.857h6.637v14.199c1.008-2.059,3.402-4.074,6.889-4.074
				c4.411,0,7.646,2.352,7.646,8.695v10.922h3.066v2.73h-9.704v-2.73h3.15v-11.174c0-3.697-1.681-5.42-5.083-5.42
				c-3.108,0-5.965,2.059-5.965,5.924v10.67h3.15v2.73H116.566z"/>
			<path class="st3" d="M160.796,112.184l-11.048,26.758h-5.588v-2.73h3.361l3.024-7.184l-7.351-16.844h-2.773v-2.857h9.662v2.857
				h-3.193l5.504,12.896l4.998-12.896h-3.318v-2.857h9.41v2.857H160.796z"/>
			<path class="st3" d="M168.017,128.608v2.689h-2.941v-7.311h2.856c0.505,2.562,2.479,4.916,5.882,4.916
				c3.023,0,4.494-1.26,4.494-3.613c0-2.311-1.764-3.107-5.167-3.738c-5.713-1.051-7.646-3.066-7.646-6.721
				c0-3.697,3.15-5.881,6.932-5.881c3.192,0,4.746,1.133,5.503,2.688v-2.311h2.94v6.344h-2.856
				c-0.504-2.438-2.437-3.949-5.251-3.949c-2.479,0-4.033,0.967-4.033,3.025c0,1.932,1.093,2.898,5.125,3.695
				c4.495,0.883,7.771,2.018,7.771,6.639c0,3.906-2.688,6.594-7.896,6.594C170.327,131.675,168.605,129.954,168.017,128.608z"/>
			<path class="st3" d="M184.312,131.298v-2.73h3.066v-16.383h-3.15v-2.857h6.637v19.24h3.15v2.73H184.312z M186.539,102.395
				c0-1.344,1.092-2.352,2.394-2.352s2.395,1.008,2.395,2.352c0,1.346-1.093,2.395-2.395,2.395S186.539,103.741,186.539,102.395z"/>
			<path class="st3" d="M213.211,109.327h3.066v7.436h-2.982c-0.756-2.939-2.772-4.914-6.512-4.914c-3.99,0-7.057,3.191-7.057,8.359
				v0.336c0,5.377,2.94,8.232,7.184,8.232c3.108,0,5.923-1.807,6.301-5.377h3.234c-0.462,4.748-4.285,8.275-9.578,8.275
				c-6.133,0-10.754-4.326-10.754-11.131v-0.336c0-6.723,4.789-11.258,10.67-11.258c3.697,0,5.545,1.469,6.428,3.234V109.327z"/>
			<path class="st3" d="M226.607,131.675c-3.99,0-7.142-1.975-7.142-6.469c0-5.125,5.293-6.805,10.838-6.805h3.067v-1.596
				c0-3.697-1.471-4.957-4.621-4.957c-2.941,0-4.537,1.092-4.873,3.947h-3.486c0.42-5.166,4.368-6.846,8.527-6.846
				c4.116,0,7.939,1.512,7.939,7.855v11.762h2.939v2.73h-6.426v-3.025C231.9,130.542,229.758,131.675,226.607,131.675z
				 M233.371,123.61v-2.73h-2.941c-4.326,0-7.477,1.135-7.477,4.326c0,1.975,1.008,3.697,3.99,3.697
				C230.556,128.903,233.371,127.013,233.371,123.61z"/>
			<path class="st3" d="M241.641,131.298v-2.73h3.066v-26.885h-3.15v-2.857h6.679v29.742h3.066v2.73H241.641z"/>
			<path class="st3" d="M266.338,127.895v3.402h-3.108v-9.199h3.108c0.715,3.779,3.402,6.721,8.023,6.721
				c3.697,0,6.469-2.27,6.469-5.504c0-3.402-1.554-5.209-6.973-6.09c-6.008-0.967-10.166-3.193-10.166-8.402
				c0-4.789,3.697-7.939,9.158-7.939c4.158,0,6.133,1.512,7.099,3.277v-2.898h3.067v7.939h-2.983
				c-0.756-3.277-3.234-5.461-7.058-5.461c-3.654,0-5.881,1.805-5.881,4.705c0,2.771,1.555,4.535,7.352,5.545
				c6.385,1.092,9.914,3.275,9.914,9.031c0,5.125-4.201,8.652-10.04,8.652C270.539,131.675,267.641,130.331,266.338,127.895z"/>
			<path class="st3" d="M304.643,109.327h3.066v7.436h-2.982c-0.757-2.939-2.772-4.914-6.511-4.914
				c-3.991,0-7.058,3.191-7.058,8.359v0.336c0,5.377,2.94,8.232,7.183,8.232c3.109,0,5.924-1.807,6.302-5.377h3.234
				c-0.462,4.748-4.284,8.275-9.577,8.275c-6.133,0-10.754-4.326-10.754-11.131v-0.336c0-6.723,4.789-11.258,10.67-11.258
				c3.696,0,5.545,1.469,6.427,3.234V109.327z"/>
			<path class="st3" d="M310.814,131.298v-2.73h3.066v-16.383h-3.15v-2.857h6.637v19.24h3.15v2.73H310.814z M313.041,102.395
				c0-1.344,1.092-2.352,2.395-2.352c1.302,0,2.395,1.008,2.395,2.352c0,1.346-1.093,2.395-2.395,2.395
				C314.133,104.79,313.041,103.741,313.041,102.395z"/>
			<path class="st3" d="M322.615,120.544v-0.336c0-6.639,4.243-11.258,10.293-11.258c5.082,0,9.871,3.066,9.871,10.922v1.133
				h-16.551c0.168,5,2.562,7.771,7.057,7.771c3.403,0,5.377-1.26,5.84-3.822h3.486c-0.756,4.41-4.41,6.721-9.367,6.721
				C327.026,131.675,322.615,127.307,322.615,120.544z M339.209,118.19c-0.336-4.537-2.688-6.342-6.301-6.342
				c-3.571,0-5.966,2.436-6.554,6.342H339.209z"/>
			<path class="st3" d="M345.254,131.298v-2.73h3.066v-16.383h-3.15v-2.857h6.637v3.697c1.008-2.059,3.402-4.074,6.889-4.074
				c4.411,0,7.646,2.352,7.646,8.695v10.922h3.066v2.73h-9.704v-2.73h3.15v-11.174c0-3.697-1.681-5.42-5.083-5.42
				c-3.108,0-5.965,2.059-5.965,5.924v10.67h3.15v2.73H345.254z"/>
			<path class="st3" d="M388.391,109.327h3.066v7.436h-2.982c-0.756-2.939-2.772-4.914-6.512-4.914c-3.99,0-7.057,3.191-7.057,8.359
				v0.336c0,5.377,2.94,8.232,7.184,8.232c3.108,0,5.923-1.807,6.301-5.377h3.234c-0.462,4.748-4.285,8.275-9.578,8.275
				c-6.133,0-10.754-4.326-10.754-11.131v-0.336c0-6.723,4.789-11.258,10.67-11.258c3.697,0,5.545,1.469,6.428,3.234V109.327z"/>
			<path class="st3" d="M394.603,120.544v-0.336c0-6.639,4.242-11.258,10.292-11.258c5.083,0,9.872,3.066,9.872,10.922v1.133
				h-16.551c0.168,5,2.562,7.771,7.057,7.771c3.402,0,5.377-1.26,5.839-3.822h3.487c-0.756,4.41-4.411,6.721-9.368,6.721
				C399.014,131.675,394.603,127.307,394.603,120.544z M411.197,118.19c-0.337-4.537-2.689-6.342-6.302-6.342
				c-3.571,0-5.966,2.436-6.554,6.342H411.197z"/>
			<path class="st3" d="M420.392,128.608v2.689h-2.941v-7.311h2.857c0.504,2.562,2.479,4.916,5.881,4.916
				c3.024,0,4.494-1.26,4.494-3.613c0-2.311-1.764-3.107-5.166-3.738c-5.713-1.051-7.646-3.066-7.646-6.721
				c0-3.697,3.15-5.881,6.931-5.881c3.193,0,4.747,1.133,5.504,2.688v-2.311h2.939v6.344h-2.855
				c-0.504-2.438-2.438-3.949-5.252-3.949c-2.479,0-4.032,0.967-4.032,3.025c0,1.932,1.093,2.898,5.125,3.695
				c4.495,0.883,7.771,2.018,7.771,6.639c0,3.906-2.688,6.594-7.897,6.594C422.703,131.675,420.98,129.954,420.392,128.608z"/>
		</g>
		<g>
			<path class="st3" d="M246.94,9.32h3.638l8.686,19.967h-4.964l-1.72-4.23h-7.756l-1.664,4.23h-4.851L246.94,9.32z M248.632,15.129
				l-2.425,6.204h4.879L248.632,15.129z"/>
			<path class="st3" d="M221.585,9.32h7.446c0.865,0,1.735,0.061,2.609,0.183c0.874,0.123,1.659,0.367,2.355,0.733
				c0.695,0.367,1.26,0.88,1.692,1.538c0.432,0.658,0.649,1.533,0.649,2.622c0,1.128-0.315,2.064-0.945,2.806
				c-0.63,0.743-1.462,1.274-2.496,1.594v0.057c0.658,0.094,1.255,0.278,1.791,0.55c0.536,0.273,0.996,0.621,1.382,1.043
				c0.385,0.423,0.681,0.917,0.888,1.481c0.207,0.564,0.31,1.166,0.31,1.805c0,1.053-0.226,1.932-0.677,2.637
				c-0.451,0.705-1.034,1.274-1.749,1.706c-0.715,0.433-1.518,0.743-2.411,0.931c-0.893,0.188-1.782,0.282-2.665,0.282h-8.179V9.32z
				 M225.985,17.301h3.187c0.339,0,0.672-0.038,1.001-0.113c0.329-0.075,0.625-0.197,0.888-0.367
				c0.263-0.169,0.475-0.395,0.635-0.677c0.16-0.282,0.24-0.621,0.24-1.015c0-0.413-0.089-0.756-0.268-1.03
				c-0.179-0.272-0.409-0.484-0.691-0.634c-0.282-0.15-0.602-0.258-0.959-0.324c-0.358-0.066-0.705-0.099-1.044-0.099h-2.989V17.301
				z M225.985,25.565h3.948c0.338,0,0.681-0.038,1.029-0.113c0.348-0.075,0.663-0.207,0.945-0.395
				c0.282-0.188,0.512-0.432,0.691-0.733c0.178-0.301,0.268-0.667,0.268-1.1c0-0.47-0.118-0.85-0.353-1.142
				c-0.235-0.291-0.532-0.512-0.888-0.663c-0.358-0.15-0.743-0.253-1.157-0.31c-0.414-0.057-0.799-0.085-1.156-0.085h-3.328V25.565z
				"/>
			<path class="st3" d="M261.36,9.319h7.728c1.015,0,1.979,0.098,2.891,0.296c0.912,0.197,1.711,0.527,2.397,0.987
				c0.686,0.461,1.231,1.082,1.636,1.862c0.404,0.78,0.606,1.753,0.606,2.919c0,1.41-0.367,2.609-1.1,3.595
				c-0.733,0.987-1.805,1.613-3.215,1.876l5.077,8.433h-5.274l-4.174-7.981h-2.172v7.981h-4.4V9.319z M265.76,17.583h2.595
				c0.395,0,0.813-0.014,1.255-0.042c0.441-0.029,0.841-0.113,1.199-0.254c0.357-0.141,0.653-0.362,0.888-0.663
				c0.235-0.301,0.353-0.723,0.353-1.269c0-0.507-0.104-0.911-0.31-1.213c-0.207-0.3-0.47-0.531-0.79-0.691
				c-0.32-0.159-0.687-0.268-1.1-0.324c-0.414-0.056-0.818-0.085-1.213-0.085h-2.876V17.583z"/>
			<path class="st3" d="M187.512,9.32h3.638l8.686,19.967h-4.964l-1.72-4.23h-7.756l-1.664,4.23h-4.851L187.512,9.32z
				 M189.204,15.129l-2.425,6.204h4.879L189.204,15.129z"/>
			<path class="st3" d="M287.611,9.32h3.638l8.686,19.967h-4.964l-1.72-4.23h-7.756l-1.664,4.23h-4.851L287.611,9.32z
				 M289.303,15.129l-2.425,6.204h4.879L289.303,15.129z"/>
			<path class="st3" d="M162.157,9.317h7.446c0.865,0,1.735,0.061,2.609,0.183c0.874,0.123,1.659,0.367,2.355,0.733
				c0.695,0.367,1.26,0.88,1.692,1.538c0.432,0.658,0.649,1.533,0.649,2.622c0,1.128-0.315,2.064-0.945,2.806
				c-0.63,0.743-1.462,1.274-2.496,1.594v0.057c0.658,0.094,1.255,0.278,1.791,0.55c0.536,0.273,0.996,0.621,1.382,1.043
				c0.385,0.423,0.681,0.917,0.888,1.481c0.207,0.564,0.31,1.166,0.31,1.805c0,1.053-0.226,1.932-0.677,2.637
				c-0.451,0.705-1.034,1.274-1.749,1.706c-0.715,0.433-1.518,0.743-2.411,0.931c-0.893,0.188-1.782,0.282-2.665,0.282h-8.179V9.317
				z M166.557,17.298h3.187c0.339,0,0.672-0.038,1.001-0.113c0.329-0.075,0.625-0.197,0.888-0.367
				c0.263-0.169,0.475-0.395,0.635-0.677c0.16-0.282,0.24-0.621,0.24-1.015c0-0.413-0.089-0.756-0.268-1.03
				c-0.179-0.272-0.409-0.484-0.691-0.634c-0.282-0.15-0.602-0.258-0.959-0.324c-0.358-0.066-0.705-0.099-1.044-0.099h-2.989V17.298
				z M166.557,25.561h3.948c0.338,0,0.681-0.038,1.029-0.113c0.348-0.075,0.663-0.207,0.945-0.395
				c0.282-0.188,0.512-0.432,0.691-0.733c0.178-0.301,0.268-0.667,0.268-1.1c0-0.47-0.118-0.85-0.353-1.142
				c-0.235-0.291-0.532-0.512-0.888-0.663c-0.358-0.15-0.743-0.253-1.157-0.31c-0.414-0.057-0.799-0.085-1.156-0.085h-3.328V25.561z
				"/>
			<path class="st3" d="M201.932,9.317h7.728c1.015,0,1.979,0.098,2.891,0.296c0.912,0.197,1.711,0.527,2.397,0.987
				c0.686,0.461,1.231,1.082,1.636,1.862c0.404,0.78,0.606,1.753,0.606,2.919c0,1.41-0.367,2.609-1.1,3.595
				c-0.733,0.987-1.805,1.613-3.215,1.876l5.077,8.433h-5.274l-4.174-7.981h-2.172v7.981h-4.4V9.317z M206.331,17.58h2.595
				c0.395,0,0.813-0.014,1.255-0.042c0.441-0.029,0.841-0.113,1.199-0.254c0.357-0.141,0.653-0.362,0.888-0.663
				c0.235-0.301,0.353-0.723,0.353-1.269c0-0.507-0.104-0.911-0.31-1.213c-0.207-0.3-0.47-0.531-0.79-0.691
				c-0.32-0.159-0.687-0.268-1.1-0.324c-0.414-0.056-0.818-0.085-1.213-0.085h-2.877V17.58z"/>
			<path class="st3" d="M82.158,9.32h3.638l8.686,19.967h-4.964l-1.72-4.23h-7.756l-1.664,4.23h-4.851L82.158,9.32z M83.85,15.129
				l-2.425,6.204h4.879L83.85,15.129z"/>
			<path class="st3" d="M141.435,9.32h3.638l8.686,19.967h-4.964l-1.72-4.23h-7.756l-1.664,4.23h-4.851L141.435,9.32z
				 M143.127,15.129l-2.425,6.204h4.879L143.127,15.129z"/>
			<path class="st3" d="M96.92,9.317h5.979l8.489,13.876h0.056V9.317h4.4v19.967h-5.753l-8.715-14.214h-0.056v14.214h-4.4V9.317z"/>
			<path class="st3" d="M124.426,13.208h-5.511V9.317h15.794v3.892h-5.883v16.075h-4.4V13.208z"/>
			<path class="st3" d="M18.277,29.599c-4.638,0-7.268-2.715-7.268-7.635l0.006-10.72H8.753V9.32h7.268v1.923h-2.545L13.47,21.681
				c0,4.242,1.499,5.882,4.864,5.882c3.224,0,5.147-1.301,5.147-6.25l0.006-10.07h-2.545V9.32h7.268v1.923h-2.262l-0.006,10.409
				C25.941,26.573,23.481,29.599,18.277,29.599z"/>
			<path class="st3" d="M45.724,22.642c-0.509,3.28-2.799,4.949-6.108,4.949c-4.355,0-6.957-3.111-6.957-8.258v-0.226
				c0-5.09,2.799-8.342,6.985-8.342c3.083,0,5.176,1.301,5.995,4.666h2.065l0-6.111h-2.206l0,2.209
				c-1.046-1.867-3.252-2.715-5.797-2.715c-5.571,0-9.587,4.327-9.587,10.322v0.226c0,6.221,3.591,10.237,9.445,10.237
				c4.448,0,7.632-2.218,8.411-6.725L45.724,22.642z"/>
			<path class="st3" d="M72.346,23.143c0,3.801-3.216,6.456-7.82,6.456c-3.689,0-6.335-1.24-7.866-3.687l3.017-2.582
				c0.489,0.697,2.169,2.719,5.22,2.719c1.908,0,3.092-0.829,3.092-2.163c0-1.686-1.1-2.061-3.884-2.842
				c-3.285-0.921-6.626-2.34-6.626-5.994c0-3.673,3.102-6.239,7.542-6.239c1.783,0,5.032,0.416,6.812,3.191l-2.804,2.441
				c-1.063-1.402-2.538-2.083-4.503-2.083c-1.974,0-2.69,1.368-2.69,2.287c0,1.456,1.942,2.092,4.289,2.718
				C69.134,18.155,72.346,19.316,72.346,23.143z"/>
		</g>
	</g>
</g>
</svg>
